<svg width="231" height="57" xmlns="http://www.w3.org/2000/svg" xmlns:xlink="http://www.w3.org/1999/xlink" xml:space="preserve" overflow="hidden"><g transform="translate(-739 -529)"><path d="M9.18044 31.6564C11.2836 30.4421 11.2871 26.5107 9.18824 22.8754 7.08935 19.2401 3.68289 17.2776 1.57969 18.4919-0.52351 19.7062-0.527006 23.6376 1.57188 27.2729 3.67077 30.9081 7.07725 32.8707 9.18044 31.6564ZM9.19302 39.4404C11.2919 43.0757 11.2884 47.007 9.18523 48.2214 7.08198 49.4357 3.67554 47.4731 1.57666 43.8378-0.522231 40.2026-0.518736 36.2712 1.58447 35.0569 3.68766 33.8426 7.09413 35.8051 9.19302 39.4404ZM23.5257 47.7268C25.6246 51.3621 25.6211 55.2932 23.5179 56.508 21.4147 57.7222 18.0082 55.7594 15.9093 52.1242 13.8105 48.489 13.8139 44.5576 15.9171 43.3433 18.0203 42.129 21.4268 44.0915 23.5257 47.7268ZM23.521 31.162C25.6199 34.7973 25.6164 38.7286 23.5132 39.943 21.41 41.1573 18.0036 39.1947 15.9047 35.5594 13.8058 31.9242 13.8093 27.9928 15.9125 26.7785 18.0157 25.5642 21.4222 27.5268 23.521 31.162Z" fill="#F26E7E" fill-rule="evenodd" transform="matrix(1.01077 0 0 1 739 529)"/><path d="M52.1933 27.282C54.292 23.6467 54.2887 19.7153 52.1855 18.501 50.0823 17.2867 46.6758 19.2493 44.577 22.8845 42.4781 26.5198 42.4816 30.4512 44.5848 31.6655 46.6879 32.8798 50.0944 30.9173 52.1933 27.282ZM52.1937 35.0621C54.2968 36.2764 54.3006 40.2077 52.2016 43.8431 50.1027 47.4783 46.6962 49.4409 44.593 48.2266 42.4898 47.0123 42.4863 43.0809 44.5852 39.4456 46.6841 35.8103 50.0905 33.8477 52.1937 35.0621ZM37.8639 43.3348C39.9672 44.5492 39.9707 48.4805 37.8718 52.1158 35.7729 55.7508 32.3664 57.7136 30.2632 56.4994 28.16 55.2852 28.1565 51.3537 30.2554 47.7184 32.3543 44.0831 35.7607 42.1205 37.8639 43.3348ZM37.8558 26.7737C39.959 27.988 39.9625 31.9194 37.8636 35.5547 35.7648 39.19 32.3583 41.1525 30.2551 39.9382 28.1519 38.7239 28.1484 34.7925 30.2473 31.1572 32.3462 27.522 35.7526 25.5594 37.8558 26.7737Z" fill="#8A3391" fill-rule="evenodd" transform="matrix(1.01077 0 0 1 739 529)"/><path d="M34.4808 4.39744C34.4808 6.82607 31.0779 8.79488 26.8801 8.79488 22.6823 8.79488 19.2793 6.82607 19.2793 4.39744 19.2793 1.9688 22.6823 0 26.8801 0 31.0779 0 34.4808 1.9688 34.4808 4.39744ZM20.1511 12.6617C20.1511 15.0904 16.7482 17.0592 12.5504 17.0592 8.3526 17.0592 4.94964 15.0904 4.94964 12.6617 4.94964 10.2331 8.3526 8.2643 12.5504 8.2643 16.7482 8.2643 20.1511 10.2331 20.1511 12.6617ZM41.2285 17.0592C45.4263 17.0592 48.8292 15.0904 48.8292 12.6617 48.8292 10.2331 45.4263 8.2643 41.2285 8.2643 37.0307 8.2643 33.6277 10.2331 33.6277 12.6617 33.6277 15.0904 37.0307 17.0592 41.2285 17.0592ZM34.4808 20.9446C34.4808 23.3732 31.0779 25.342 26.8801 25.342 22.6823 25.342 19.2793 23.3732 19.2793 20.9446 19.2793 18.516 22.6823 16.5472 26.8801 16.5472 31.0779 16.5472 34.4808 18.516 34.4808 20.9446Z" fill="#F7BF2A" fill-rule="evenodd" transform="matrix(1.01077 0 0 1 739 529)"/><path d="M136.702 10.217 139.528 10.217C140.405 10.217 140.892 10.7042 140.892 11.5811L140.892 44.3934C140.892 45.2704 140.405 45.7576 139.528 45.7576L136.702 45.7576C135.825 45.7576 135.338 45.2704 135.338 44.3934L135.338 11.5811C135.338 10.7042 135.825 10.217 136.702 10.217ZM82.3564 45.7574C83.2334 45.7574 83.7206 45.2702 83.7206 44.3933L83.7206 33.4071 89.4448 33.4071C96.7043 33.4071 101.259 29.0711 101.259 22.5428 101.259 16.0388 96.7043 11.6784 89.4448 11.6784L79.3359 11.6784C78.4589 11.6784 77.9717 12.1656 77.9717 13.0426L77.9717 44.3933C77.9717 45.2702 78.4589 45.7574 79.3359 45.7574L82.3564 45.7574ZM83.7206 16.526 89.0797 16.526C93.1719 16.526 95.4863 18.8888 95.4863 22.5428 95.4863 26.2211 93.1719 28.5839 89.0797 28.5839L83.7206 28.5839 83.7206 16.526ZM105.352 21.9095 105.352 36.0868C105.352 42.2985 109.372 46.3178 115.437 46.3178 118.652 46.3178 121.405 44.7344 123.11 42.4203L123.11 44.3934C123.11 45.2703 123.598 45.7575 124.475 45.7575L127.325 45.7575C128.202 45.7575 128.689 45.2703 128.689 44.3934L128.689 21.9095C128.689 21.0326 128.202 20.5454 127.325 20.5454L124.475 20.5454C123.598 20.5454 123.11 21.0326 123.11 21.9095L123.11 34.2842C123.11 38.474 120.09 41.4215 116.582 41.4215 113.22 41.4215 110.906 39.0342 110.906 35.6239L110.906 21.9095C110.906 21.0326 110.419 20.5454 109.542 20.5454L106.716 20.5454C105.839 20.5454 105.352 21.0326 105.352 21.9095ZM147.08 21.9095 147.08 36.0868C147.08 42.2985 151.099 46.3178 157.165 46.3178 160.38 46.3178 163.133 44.7344 164.838 42.4203L164.838 44.3934C164.838 45.2703 165.325 45.7575 166.202 45.7575L169.052 45.7575C169.929 45.7575 170.417 45.2703 170.417 44.3934L170.417 21.9095C170.417 21.0326 169.929 20.5454 169.052 20.5454L166.202 20.5454C165.325 20.5454 164.838 21.0326 164.838 21.9095L164.838 34.2842C164.838 38.474 161.818 41.4215 158.309 41.4215 154.948 41.4215 152.634 39.0342 152.634 35.6239L152.634 21.9095C152.634 21.0326 152.146 20.5454 151.27 20.5454L148.444 20.5454C147.567 20.5454 147.08 21.0326 147.08 21.9095ZM216.114 30.2162 216.114 44.4178C216.114 45.2947 215.627 45.7819 214.751 45.7819L211.901 45.7819C211.024 45.7819 210.536 45.2947 210.536 44.4178L210.536 30.7034C210.536 27.2931 208.417 24.9058 205.299 24.9058 202.156 24.9058 199.185 28.0726 199.185 31.897L199.185 44.4178C199.185 45.2947 198.698 45.7819 197.821 45.7819L194.971 45.7819C194.094 45.7819 193.606 45.2947 193.606 44.4178L193.606 30.7034C193.606 27.2931 191.487 24.9058 188.369 24.9058 185.373 24.9058 182.255 27.7802 182.255 31.897L182.255 44.4178C182.255 45.2947 181.768 45.7819 180.891 45.7819L178.041 45.7819C177.164 45.7819 176.677 45.2947 176.677 44.4178L176.677 21.9096C176.677 21.0326 177.164 20.5454 178.041 20.5454L180.891 20.5454C181.768 20.5454 182.255 21.0326 182.255 21.9096L182.255 23.834C184.033 21.4955 186.591 19.9608 189.538 19.9608 193.339 19.9608 196.53 21.9339 198.113 25.1981 199.769 22.0314 202.839 19.9608 206.444 19.9608 211.925 19.9608 216.114 24.0045 216.114 30.2162ZM228.538 13.6761C228.538 11.7517 227.027 10.2658 225.078 10.2658 223.13 10.2658 221.644 11.7517 221.644 13.6761 221.644 15.5762 223.13 17.0621 225.078 17.0621 227.027 17.0621 228.538 15.5762 228.538 13.6761ZM227.856 21.9096C227.856 21.0327 227.369 20.5455 226.492 20.5455L223.666 20.5455C222.789 20.5455 222.302 21.0327 222.302 21.9096L222.302 44.3935C222.302 45.2704 222.789 45.7576 223.666 45.7576L226.492 45.7576C227.369 45.7576 227.856 45.2704 227.856 44.3935L227.856 21.9096Z" fill="#FFFFFF" fill-rule="evenodd" transform="matrix(1.01077 0 0 1 739 529)"/></g></svg>