<svg width="291" height="77" xmlns="http://www.w3.org/2000/svg" xmlns:xlink="http://www.w3.org/1999/xlink" xml:space="preserve" overflow="hidden"><g transform="translate(-948 -626)"><path d="M5.62259 1.41985 70.1972 1.41985C72.8097 1.41985 74.9679 3.7484 74.9679 6.58809L74.9679 70.3676C74.9679 73.2073 72.8665 75.5358 70.1972 75.5358L5.62259 75.5358C3.01008 75.5358 0.851908 73.2073 0.851908 70.3676L0.851908 6.58809C0.851908 3.7484 3.01008 1.41985 5.62259 1.41985Z" fill="#E60F05" transform="matrix(1 0 0 1.00354 948.108 626)"/><path d="M53.1591 48.7859C52.5343 48.1612 51.796 47.7636 50.9441 47.5933 50.0922 47.4229 49.2403 47.5365 48.4452 47.8204 47.6501 48.1612 46.9685 48.6723 46.5142 49.4107 46.0598 50.0922 45.7759 50.9441 45.7759 51.796 45.7759 52.3639 45.8894 52.9319 46.1166 53.443 46.3438 53.9542 46.6278 54.4653 47.0253 54.8629 47.4229 55.2604 47.8772 55.6012 48.4452 55.7716 48.9563 55.9988 49.5243 56.1123 50.0922 56.1123 50.9441 56.1123 51.796 55.8852 52.4775 55.374 53.1591 54.9197 53.727 54.2381 54.0678 53.443 54.4085 52.6479 54.4653 51.796 54.2949 50.9441 54.1814 50.149 53.7838 49.4107 53.1591 48.7859ZM50.149 53.9542C49.0131 53.9542 48.0476 52.9887 48.0476 51.8528 48.0476 50.7169 49.0131 49.7514 50.149 49.7514 51.2849 49.7514 52.3072 50.7169 52.3072 51.8528 52.3072 52.9887 51.2849 53.9542 50.149 53.9542Z" fill="#FFFFFF" transform="matrix(1 0 0 1.00354 948.108 626)"/><path d="M60.7694 46.287 59.52 46.287C58.3841 46.287 57.8162 45.7759 57.305 45.2079 56.3963 44.1856 55.3172 43.3905 54.0678 42.8226 52.8183 42.2546 51.512 42.0275 50.149 42.0275L15.3911 42.0275C15.2776 42.0275 15.164 42.0843 15.0504 42.141 14.9368 42.1978 14.88 42.2546 14.7664 42.3114 14.7096 42.3682 14.6528 42.4818 14.596 42.5954 14.5392 42.709 14.4824 42.8226 14.4824 42.9362L14.4824 44.5264 14.4824 48.6723C14.4824 49.2971 13.9713 49.0699 13.9713 50.0922L13.9713 50.6601C13.9713 51.3417 14.3688 51.7392 14.9936 51.7392L16.1295 51.7392C16.2998 51.7392 16.6974 51.6256 16.6974 51.1713 16.6974 47.6501 19.5939 44.7536 23.0015 44.7536 26.4091 44.7536 29.4192 47.4797 29.4192 51.1713 29.4192 51.512 29.6464 51.6824 29.9304 51.6824L43.1633 51.6824C43.5041 51.6824 43.7313 51.4552 43.7313 51.1145 43.7313 47.7636 46.4006 44.6968 50.149 44.6968 53.6702 44.6968 56.5099 47.5933 56.5099 51.1145 56.5099 51.3417 56.6235 51.6824 57.0778 51.6824L60.8262 51.6824C61.3942 51.6824 61.9053 51.1145 61.9053 50.6033L61.9053 47.4229C61.7917 46.6846 61.451 46.287 60.7694 46.287Z" fill="#FFFFFF" transform="matrix(1 0 0 1.00354 948.108 626)"/><path d="M26.0684 48.7859C25.4437 48.1612 24.7053 47.7636 23.8534 47.5933 23.0015 47.4229 22.1496 47.5365 21.3545 47.8204 20.5594 48.1612 19.8779 48.6723 19.4235 49.4107 18.9692 50.0922 18.6852 50.9441 18.6852 51.796 18.6852 52.3639 18.7988 52.9319 19.0259 53.443 19.2531 53.9542 19.5371 54.4653 19.9346 54.8629 20.3322 55.2604 20.7866 55.6012 21.3545 55.7716 21.8656 55.9988 22.4336 56.1123 23.0015 56.1123 23.8534 56.1123 24.7053 55.8852 25.3869 55.374 26.0684 54.9197 26.6363 54.2381 26.9771 53.443 27.3179 52.6479 27.3746 51.796 27.2043 50.9441 27.0907 50.149 26.6931 49.4107 26.0684 48.7859ZM23.0583 53.9542C21.9224 53.9542 20.9569 52.9887 20.9569 51.8528 20.9569 50.7169 21.9224 49.7514 23.0583 49.7514 24.1942 49.7514 25.2165 50.7169 25.2165 51.8528 25.2165 52.9887 24.1942 53.9542 23.0583 53.9542Z" fill="#FFFFFF" transform="matrix(1 0 0 1.00354 948.108 626)"/><path d="M14.7096 38.7902C14.7664 38.9038 14.88 38.9606 14.9936 39.0174 15.1072 39.0742 15.2208 39.0742 15.3343 39.0742L50.0922 39.0742C53.1023 39.0174 56.0555 40.2101 58.2137 42.2546 58.5545 42.5954 59.0088 43.3337 59.6904 43.3337L60.3719 43.3337C60.7126 43.3337 60.8262 43.1633 60.8262 42.7658L60.8262 37.8247C60.8262 30.8959 56.6235 25.3301 49.4675 22.604 42.0275 19.6507 24.3078 20.7866 17.1517 22.6608 16.0159 22.9447 14.4824 23.5127 14.4824 25.6708L14.4824 37.0296 14.5392 38.1087C14.4824 38.3927 14.596 38.6198 14.7096 38.7902ZM43.5609 26.8635C43.5609 26.5227 43.6745 26.2956 44.1288 26.2956L46.3438 26.2956C51.6824 26.2956 55.3172 29.9304 57.305 35.3258 57.4186 35.6098 57.3618 36.0641 56.7939 36.0641L44.1288 36.0641C43.7881 36.0641 43.5609 35.7233 43.5609 35.4962L43.5609 26.8635ZM30.6119 26.8635C30.6119 26.8067 30.6119 26.6931 30.6687 26.6363 30.6687 26.5795 30.7255 26.5227 30.7823 26.4659 30.8391 26.4091 30.8959 26.3524 30.9527 26.3524 31.0095 26.3524 31.0662 26.2956 31.1798 26.2956L40.5508 26.2956C40.8916 26.2956 41.1188 26.5227 41.1188 26.8635L41.1188 35.4394C41.1188 35.7233 40.8916 36.0073 40.5508 36.0073L31.123 36.0073C30.8391 36.0073 30.5551 35.8937 30.5551 35.4394L30.5551 26.8635ZM17.4925 26.8635C17.4925 26.7499 17.4925 26.2956 18.0037 26.2956L27.6018 26.2956C27.9426 26.2956 28.1698 26.5227 28.1698 26.8067L28.1698 35.4962C28.1698 35.6665 28.0562 36.0073 27.6018 36.0073L18.0037 36.0073C17.6061 36.0073 17.4925 35.6665 17.4925 35.4394L17.4925 26.8635Z" fill="#FFFFFF" transform="matrix(1 0 0 1.00354 948.108 626)"/><path d="M94.3914 21.5249C94.3346 21.5249 94.2778 21.5249 94.221 21.5817 94.1642 21.5817 94.1074 21.6385 94.1074 21.6953 94.0507 21.7521 94.0507 21.8088 93.9939 21.8088 93.9939 21.8656 93.9371 21.9224 93.9371 21.9792L93.9371 47.3093C93.9371 50.3762 94.789 52.5911 96.5496 53.9542 98.4238 55.4876 101.434 55.8284 104.898 55.0333 105.012 55.0333 105.069 54.9765 105.125 54.8629 105.182 54.8061 105.239 54.6925 105.239 54.5789L105.182 50.2626C105.182 50.2058 105.182 50.149 105.125 50.0922 105.125 50.0354 105.069 49.9786 105.012 49.9218 104.955 49.865 104.898 49.865 104.841 49.865 104.785 49.865 104.728 49.865 104.671 49.865 103.308 50.149 102.286 49.9786 101.547 49.4107 100.752 48.7859 100.412 47.6501 100.412 46.003L100.412 21.9792C100.412 21.8656 100.355 21.7521 100.298 21.6953 100.241 21.6385 100.128 21.5817 100.014 21.5817L94.3914 21.5817Z" fill="#1B1A21" transform="matrix(1 0 0 1.00354 948.108 626)"/><path d="M118.87 28.7945C115.121 28.7945 112.054 30.1007 109.726 32.6565 107.397 35.2122 106.205 38.3927 106.205 42.141 106.205 46.003 107.397 49.1835 109.726 51.7392 112.054 54.2381 115.178 55.5444 118.983 55.5444 121.88 55.5444 124.435 54.7493 126.594 53.1591 128.695 51.6256 130.285 49.4107 131.023 46.8549 131.023 46.7981 131.023 46.7414 131.023 46.6846 131.023 46.6278 130.967 46.571 130.967 46.5142 130.91 46.4574 130.91 46.4006 130.853 46.4006 130.796 46.4006 130.739 46.3438 130.683 46.3438L124.947 46.3438C124.89 46.3438 124.776 46.3438 124.719 46.4006 124.663 46.4574 124.606 46.5142 124.606 46.571 124.208 47.5933 123.47 48.4452 122.504 48.9563 121.482 49.5811 120.346 49.865 119.154 49.865 117.279 49.865 115.803 49.3539 114.667 48.218 113.588 47.1389 112.906 45.7759 112.736 44.2992L112.736 44.1856 131.194 44.1856C131.307 44.1856 131.364 44.1288 131.478 44.072 131.535 44.0152 131.591 43.9017 131.591 43.7881L131.648 42.0275C131.648 38.2791 130.456 35.0986 128.184 32.5997 125.628 30.044 122.618 28.7945 118.87 28.7945ZM124.947 39.1878 112.679 39.1878 112.736 39.0742C113.02 37.7679 113.701 36.5753 114.724 35.6665 115.859 34.6443 117.223 34.1899 118.926 34.1899 120.63 34.1899 122.05 34.7011 123.129 35.6665 124.095 36.5753 124.776 37.7679 125.003 39.0742L124.947 39.1878Z" fill="#1B1A21" transform="matrix(1 0 0 1.00354 948.108 626)"/><path d="M251.426 49.2971C247.508 49.2971 244.384 46.1166 244.384 42.2546 244.384 38.3927 247.564 35.2122 251.426 35.2122 255.288 35.2122 258.469 38.3927 258.469 42.2546 258.469 46.1166 255.288 49.2971 251.426 49.2971ZM251.426 28.9649C246.031 28.9649 241.317 32.1453 239.159 37.1432 238.137 39.5285 237.91 42.1978 238.421 44.8104 238.932 47.3661 240.181 49.6946 242.055 51.5688 243.93 53.443 246.258 54.6357 248.814 55.2036 251.37 55.7148 254.039 55.4308 256.481 54.4653 258.923 53.443 260.968 51.7392 262.444 49.5811 263.864 47.3661 264.659 44.8672 264.659 42.2546 264.603 34.985 258.866 28.9649 251.426 28.9649ZM287.718 31.7478C286.071 29.8736 283.685 28.9649 280.675 28.9649 278.801 28.9649 277.097 29.3624 275.734 30.1007 274.996 30.5551 274.314 31.123 273.69 31.7478L273.519 31.9182 273.519 29.8736C273.519 29.8168 273.462 29.7032 273.406 29.6464 273.349 29.5896 273.235 29.5328 273.122 29.5328L267.897 29.5328C267.84 29.5328 267.726 29.5896 267.669 29.6464 267.613 29.7032 267.556 29.8168 267.556 29.8736L267.556 54.4653C267.556 54.5221 267.556 54.5789 267.613 54.6357 267.613 54.6925 267.669 54.7493 267.726 54.7493 267.783 54.8061 267.897 54.8629 267.953 54.8629L273.633 54.8629C273.69 54.8629 273.86 54.8061 273.86 54.7493 273.974 54.6925 273.974 54.5789 273.974 54.4653L273.974 40.2101C273.974 38.5062 274.485 37.0296 275.393 36.0641 276.359 35.0418 277.665 34.5307 279.369 34.5307 280.902 34.5307 282.038 34.985 282.777 35.8937 283.515 36.8024 283.913 38.1087 283.913 39.7557L283.913 54.4653C283.913 54.5789 283.913 54.6925 283.969 54.7493 284.083 54.8061 284.197 54.8629 284.31 54.8629L289.876 54.8629C289.99 54.8629 290.103 54.8061 290.16 54.7493 290.217 54.6925 290.217 54.6925 290.273 54.6357 290.273 54.5789 290.33 54.5221 290.33 54.4653L290.33 39.0174C290.217 36.0073 289.365 33.5652 287.718 31.7478ZM229.106 41.7435C229.106 45.7759 226.494 48.7859 222.632 48.7859 218.884 48.7859 216.157 45.8894 216.157 41.7435 216.157 37.8247 218.486 34.7011 222.632 34.7011 226.608 34.7578 229.106 37.7111 229.106 41.7435ZM234.843 29.5328 229.618 29.5328C229.561 29.5328 229.504 29.5328 229.447 29.5896 229.39 29.5896 229.334 29.6464 229.334 29.7032 229.277 29.76 229.22 29.8736 229.22 29.9304L229.22 32.2589 229.05 32.0885C227.289 30.044 224.733 29.0217 221.439 29.0217 214.283 29.0217 209.74 34.5875 209.74 41.8003 209.74 45.3783 210.819 48.4452 212.92 50.8305 215.022 53.2727 217.918 54.5221 221.439 54.5221 224.506 54.5221 226.948 53.5566 228.652 51.6824L228.822 51.4552 228.822 54.1246C228.822 57.4754 226.096 60.0879 222.973 60.0879 219.792 60.0879 218.259 58.2137 217.521 56.8507 217.35 56.5667 217.293 56.5099 217.123 56.5667 216.555 56.8507 212.239 59.1224 212.012 59.236 211.898 59.2928 211.898 59.4632 211.955 59.5768 213.715 63.4955 217.634 65.9945 223.03 65.9945 229.788 65.9945 235.24 61.2238 235.24 53.3294L235.24 29.8736C235.24 29.8168 235.24 29.7032 235.127 29.6464 235.013 29.5896 234.956 29.5328 234.843 29.5328ZM200.596 42.1978C200.596 46.5142 198.211 49.6946 194.065 49.6946 189.919 49.6946 187.533 46.3438 187.533 42.1978 187.533 38.1655 189.862 34.7578 194.065 34.7578 198.097 34.7578 200.596 37.7679 200.596 42.1978ZM206.389 29.5896 201.164 29.5896C201.107 29.5896 200.993 29.6464 200.88 29.7032 200.823 29.76 200.823 29.8736 200.823 29.9304L200.823 32.2589 200.596 32.0885C198.892 30.044 196.28 29.0217 192.872 29.0217 185.546 29.0217 181.229 34.7011 181.229 42.1978 181.229 49.6946 185.546 55.4308 192.872 55.4308 196.223 55.4308 198.892 54.4085 200.596 52.3639L200.823 52.1368 200.823 54.4653C200.823 54.5789 200.88 54.6357 200.88 54.7493 200.993 54.8061 201.107 54.8629 201.164 54.8629L206.389 54.8629C206.503 54.8629 206.616 54.8061 206.616 54.7493 206.73 54.6925 206.73 54.5789 206.73 54.4653L206.73 29.9304C206.73 29.8736 206.73 29.76 206.616 29.7032 206.559 29.7032 206.503 29.5896 206.389 29.5896ZM181.456 29.8736C181.456 29.8168 181.4 29.8168 181.4 29.7032 181.343 29.6464 181.286 29.5896 181.229 29.5896 181.172 29.5328 181.116 29.5328 181.059 29.5328L175.323 29.5328C175.266 29.5328 175.209 29.5328 175.152 29.5896 175.039 29.6464 175.039 29.7032 174.982 29.8168L169.927 46.003 164.816 29.8736C164.759 29.76 164.759 29.7032 164.645 29.6464 164.589 29.6464 164.532 29.5896 164.418 29.5896L159.023 29.5896C158.909 29.5896 158.852 29.6464 158.796 29.6464 158.739 29.7032 158.682 29.76 158.682 29.8736L153.4 46.2302 148.232 29.8168C148.232 29.7032 148.175 29.6464 148.118 29.5896 148.062 29.5896 147.948 29.5328 147.891 29.5328L142.041 29.5328C141.985 29.5328 141.928 29.5328 141.814 29.5896 141.757 29.5896 141.757 29.6464 141.757 29.7032 141.701 29.76 141.701 29.8168 141.701 29.8736L141.701 30.1007 150.277 54.6357C150.277 54.6925 150.333 54.7493 150.39 54.8061 150.504 54.8629 150.561 54.8629 150.617 54.8629L155.842 54.8629C155.899 54.8629 155.899 54.8629 155.956 54.8629 156.013 54.8629 156.013 54.8061 156.07 54.8061 156.126 54.8061 156.126 54.7493 156.126 54.7493 156.126 54.7493 156.183 54.6925 156.183 54.6357L161.522 38.6198 166.804 54.5789C166.804 54.6357 166.86 54.7493 166.917 54.8061 166.974 54.8061 167.088 54.8629 167.144 54.8629L172.426 54.8629C172.54 54.8629 172.653 54.8061 172.653 54.8061 172.71 54.7493 172.767 54.6925 172.824 54.5789L181.456 30.1007 181.456 29.8736Z" fill="#1B1A21" transform="matrix(1 0 0 1.00354 948.108 626)"/></g></svg>